<?xml version="1.0" standalone="no"?><!DOCTYPE svg PUBLIC "-//W3C//DTD SVG 1.1//EN" "http://www.w3.org/Graphics/SVG/1.1/DTD/svg11.dtd"><svg t="1757777013335" class="icon" viewBox="0 0 1024 1024" version="1.1" xmlns="http://www.w3.org/2000/svg" p-id="7208" xmlns:xlink="http://www.w3.org/1999/xlink" width="200" height="200"><path d="M512 950.8C270 950.8 73.2 754 73.2 512S270 73.2 512 73.2 950.8 270 950.8 512 754 950.8 512 950.8z m0-810C307.2 140.8 140.8 307.2 140.8 512c0 204.8 166.6 371.2 371.2 371.2 204.8 0 371.2-166.6 371.2-371.2 0-204.8-166.4-371.2-371.2-371.2z" p-id="7209" fill="#2c2c2c"></path><path d="M219.2 492.4l241.4-145.8c1.8-1 3.6-1.8 5.6-2.4 2-0.6 4-0.8 6-0.8s4 0.2 6 0.8c2 0.6 3.8 1.2 5.6 2.2 1.8 1 3.4 2.2 4.8 3.6s2.6 3 3.6 4.8 1.8 3.6 2.2 5.6c0.6 2 0.8 4 0.8 6v112.4L714 346.6c1.8-1 3.6-1.8 5.6-2.4 2-0.6 4-0.8 6-0.8s4 0.2 6 0.8c2 0.6 3.8 1.2 5.6 2.2 1.8 1 3.4 2.2 4.8 3.6s2.6 3 3.6 4.8c1 1.8 1.8 3.6 2.2 5.6 0.6 2 0.8 4 0.8 6V658c0 2-0.2 4-0.8 6-0.6 2-1.2 3.8-2.2 5.6s-2.2 3.4-3.6 4.8-3 2.6-4.8 3.6c-1.8 1-3.6 1.8-5.6 2.2-2 0.6-4 0.8-6 0.8s-4-0.4-6-0.8-3.8-1.4-5.6-2.4l-218.8-132.2V658c0 2-0.2 4-0.8 6-0.6 2-1.2 3.8-2.2 5.6-1 1.8-2.2 3.4-3.6 4.8s-3 2.6-4.8 3.6c-1.8 1-3.6 1.8-5.6 2.2-2 0.6-4 0.8-6 0.8s-4-0.4-6-0.8c-2-0.6-3.8-1.4-5.6-2.4L219.2 532c-0.8-0.6-1.6-1-2.4-1.6-0.8-0.6-1.4-1.2-2.2-2-0.6-0.8-1.4-1.4-2-2.2-0.6-0.8-1.2-1.6-1.6-2.4-0.4-0.8-1-1.8-1.2-2.6-0.4-1-0.6-1.8-1-2.8-0.2-1-0.4-2-0.6-2.8-0.2-1-0.2-2-0.2-3s0-2 0.2-3 0.4-2 0.6-2.8c0.2-1 0.6-1.8 1-2.8 0.4-1 0.8-1.8 1.2-2.6s1-1.6 1.6-2.4c0.6-0.8 1.2-1.6 2-2.2s1.4-1.4 2.2-2c0.8-1.4 1.6-2 2.4-2.4z" p-id="7210" fill="#2c2c2c"></path></svg>